<svg width="111" height="110" viewBox="0 0 111 110" fill="none" xmlns="http://www.w3.org/2000/svg">
<rect x="0.5" width="110" height="110" rx="55" fill="#0D8536" fill-opacity="0.1"/>
<path d="M55.5 22.5C49.0721 22.5 42.7886 24.4061 37.444 27.9772C32.0994 31.5484 27.9338 36.6242 25.4739 42.5628C23.0141 48.5014 22.3705 55.0361 23.6245 61.3404C24.8785 67.6448 27.9738 73.4358 32.519 77.981C37.0642 82.5262 42.8552 85.6215 49.1596 86.8755C55.464 88.1295 61.9986 87.4859 67.9372 85.0261C73.8758 82.5662 78.9516 78.4006 82.5228 73.056C86.0939 67.7114 88 61.4279 88 55C87.9909 46.3833 84.5639 38.122 78.4709 32.0291C72.378 25.9361 64.1168 22.5091 55.5 22.5ZM69.7688 49.2687L52.2688 66.7687C52.0366 67.0012 51.7609 67.1856 51.4574 67.3114C51.1539 67.4372 50.8286 67.502 50.5 67.502C50.1715 67.502 49.8462 67.4372 49.5427 67.3114C49.2392 67.1856 48.9634 67.0012 48.7313 66.7687L41.2313 59.2687C40.7622 58.7996 40.4986 58.1634 40.4986 57.5C40.4986 56.8366 40.7622 56.2003 41.2313 55.7312C41.7004 55.2621 42.3366 54.9986 43 54.9986C43.6634 54.9986 44.2997 55.2621 44.7688 55.7312L50.5 61.4656L66.2313 45.7312C66.4635 45.499 66.7393 45.3147 67.0428 45.189C67.3463 45.0633 67.6715 44.9986 68 44.9986C68.3285 44.9986 68.6538 45.0633 68.9573 45.189C69.2607 45.3147 69.5365 45.499 69.7688 45.7312C70.001 45.9635 70.1853 46.2393 70.311 46.5428C70.4367 46.8462 70.5014 47.1715 70.5014 47.5C70.5014 47.8285 70.4367 48.1538 70.311 48.4572C70.1853 48.7607 70.001 49.0365 69.7688 49.2687Z" fill="#0D8536"/>
</svg>
